<?xml version='1.0' encoding='iso-8859-1'?>
<!DOCTYPE svg PUBLIC '-//W3C//DTD SVG 1.1//EN' 'http://www.w3.org/Graphics/SVG/1.1/DTD/svg11.dtd'>
<svg version="1.1" xmlns="http://www.w3.org/2000/svg" viewBox="0 0 423 423" xmlns:xlink="http://www.w3.org/1999/xlink" enable-background="new 0 0 423 423">
  <path d="M356.831,93.288l-16.863-54.022C338.99,36.133,336.09,34,332.809,34H266v-1.91C266,14.396,251.605,0,233.91,0h-44.82  C171.396,0,157,14.396,157,32.09V34H90.191c-3.281,0-6.182,2.133-7.159,5.265L66.169,93.288c-0.711,2.277-0.296,4.757,1.117,6.678  c1.413,1.922,3.657,3.057,6.042,3.057h12.685l19.222,312.938c0.243,3.956,3.522,7.04,7.486,7.04h197.557  c3.963,0,7.243-3.084,7.486-7.04l19.222-312.938h12.685c2.385,0,4.628-1.135,6.042-3.057  C357.127,98.044,357.542,95.565,356.831,93.288z M172,32.09c0-9.423,7.667-17.09,17.09-17.09h44.82c9.423,0,17.09,7.667,17.09,17.09  V34h-79V32.09z M101.041,103.022h18.217L132.714,408h-12.939L101.041,103.022z M134.273,103.022h33.483L173.511,408h-25.783  L134.273,103.022z M188.514,408l-5.755-304.978h57.482L234.486,408H188.514z M249.489,408l5.755-304.978h33.483L275.272,408H249.489  z M303.225,408h-12.939l13.455-304.978h18.217L303.225,408z M83.526,88.022L95.707,49h231.586l12.181,39.022H83.526z"/>
</svg>
